<mxfile host="app.diagrams.net" agent="Mozilla/5.0 (Windows NT 10.0; Win64; x64) AppleWebKit/537.36 (KHTML, like Gecko) Chrome/127.0.0.0 Safari/537.36" version="24.7.6">
  <diagram id="R2lEEEUBdFMjLlhIrx00" name="Page-1">
    <mxGraphModel dx="1750" dy="870" grid="1" gridSize="10" guides="1" tooltips="1" connect="1" arrows="1" fold="1" page="1" pageScale="1" pageWidth="1600" pageHeight="900" math="0" shadow="0" extFonts="Permanent Marker^https://fonts.googleapis.com/css?family=Permanent+Marker">
      <root>
        <mxCell id="0" />
        <mxCell id="1" parent="0" />
        <mxCell id="BN0-aAmPABuchmEnCktR-3" value="Prenotazione" style="swimlane;childLayout=stackLayout;horizontal=1;startSize=50;horizontalStack=0;rounded=1;fontSize=14;fontStyle=0;strokeWidth=2;resizeParent=0;resizeLast=1;shadow=0;dashed=0;align=center;arcSize=4;whiteSpace=wrap;html=1;" vertex="1" parent="1">
          <mxGeometry x="1070" y="550" width="160" height="120" as="geometry" />
        </mxCell>
        <mxCell id="BN0-aAmPABuchmEnCktR-4" value="PK booking_ID&lt;div&gt;FK user_ID&lt;/div&gt;&lt;div&gt;FK projection_ID&lt;/div&gt;&lt;div&gt;seats&lt;/div&gt;" style="align=left;strokeColor=none;fillColor=none;spacingLeft=4;fontSize=12;verticalAlign=top;resizable=0;rotatable=0;part=1;html=1;" vertex="1" parent="BN0-aAmPABuchmEnCktR-3">
          <mxGeometry y="50" width="160" height="70" as="geometry" />
        </mxCell>
        <mxCell id="BN0-aAmPABuchmEnCktR-5" value="Recensione" style="swimlane;childLayout=stackLayout;horizontal=1;startSize=50;horizontalStack=0;rounded=1;fontSize=14;fontStyle=0;strokeWidth=2;resizeParent=0;resizeLast=1;shadow=0;dashed=0;align=center;arcSize=4;whiteSpace=wrap;html=1;" vertex="1" parent="1">
          <mxGeometry x="690" y="470" width="160" height="150" as="geometry" />
        </mxCell>
        <mxCell id="BN0-aAmPABuchmEnCktR-6" value="PK review_ID&lt;div&gt;FK user_ID&lt;br&gt;FK movie_ID&lt;div&gt;rating&lt;/div&gt;&lt;div&gt;comment&lt;/div&gt;&lt;div&gt;rewiew_date&lt;/div&gt;&lt;/div&gt;" style="align=left;strokeColor=none;fillColor=none;spacingLeft=4;fontSize=12;verticalAlign=top;resizable=0;rotatable=0;part=1;html=1;" vertex="1" parent="BN0-aAmPABuchmEnCktR-5">
          <mxGeometry y="50" width="160" height="100" as="geometry" />
        </mxCell>
        <mxCell id="BN0-aAmPABuchmEnCktR-7" value="Proiezione" style="swimlane;childLayout=stackLayout;horizontal=1;startSize=50;horizontalStack=0;rounded=1;fontSize=14;fontStyle=0;strokeWidth=2;resizeParent=0;resizeLast=1;shadow=0;dashed=0;align=center;arcSize=4;whiteSpace=wrap;html=1;" vertex="1" parent="1">
          <mxGeometry x="340" y="320" width="160" height="150" as="geometry" />
        </mxCell>
        <mxCell id="BN0-aAmPABuchmEnCktR-8" value="PK Projection_ID&lt;div&gt;FK Movie_ID&lt;/div&gt;&lt;div&gt;projection_date&lt;/div&gt;&lt;div&gt;hall&lt;/div&gt;&lt;div&gt;projection_time&lt;/div&gt;&lt;div&gt;avaiable_seat&lt;/div&gt;" style="align=left;strokeColor=none;fillColor=none;spacingLeft=4;fontSize=12;verticalAlign=top;resizable=0;rotatable=0;part=1;html=1;" vertex="1" parent="BN0-aAmPABuchmEnCktR-7">
          <mxGeometry y="50" width="160" height="100" as="geometry" />
        </mxCell>
        <mxCell id="BN0-aAmPABuchmEnCktR-11" value="FIlm" style="swimlane;childLayout=stackLayout;horizontal=1;startSize=50;horizontalStack=0;rounded=1;fontSize=14;fontStyle=0;strokeWidth=2;resizeParent=0;resizeLast=1;shadow=0;dashed=0;align=center;arcSize=4;whiteSpace=wrap;html=1;" vertex="1" parent="1">
          <mxGeometry x="120" y="40" width="160" height="150" as="geometry" />
        </mxCell>
        <mxCell id="BN0-aAmPABuchmEnCktR-12" value="PK movie_ID&lt;br&gt;title&lt;br&gt;description&lt;div&gt;release_date&lt;/div&gt;&lt;div&gt;gnre&lt;/div&gt;&lt;div&gt;duration&lt;br&gt;&lt;div&gt;&lt;br&gt;&lt;/div&gt;&lt;/div&gt;" style="align=left;strokeColor=none;fillColor=none;spacingLeft=4;fontSize=12;verticalAlign=top;resizable=0;rotatable=0;part=1;html=1;" vertex="1" parent="BN0-aAmPABuchmEnCktR-11">
          <mxGeometry y="50" width="160" height="100" as="geometry" />
        </mxCell>
        <mxCell id="BN0-aAmPABuchmEnCktR-13" value="Sala" style="swimlane;childLayout=stackLayout;horizontal=1;startSize=50;horizontalStack=0;rounded=1;fontSize=14;fontStyle=0;strokeWidth=2;resizeParent=0;resizeLast=1;shadow=0;dashed=0;align=center;arcSize=4;whiteSpace=wrap;html=1;" vertex="1" parent="1">
          <mxGeometry x="1080" y="200" width="150" height="100" as="geometry" />
        </mxCell>
        <mxCell id="BN0-aAmPABuchmEnCktR-14" value="PK hall_ID&lt;div&gt;name&lt;/div&gt;&lt;div&gt;capacity&lt;/div&gt;" style="align=left;strokeColor=none;fillColor=none;spacingLeft=4;fontSize=12;verticalAlign=top;resizable=0;rotatable=0;part=1;html=1;" vertex="1" parent="BN0-aAmPABuchmEnCktR-13">
          <mxGeometry y="50" width="150" height="50" as="geometry" />
        </mxCell>
        <mxCell id="BN0-aAmPABuchmEnCktR-22" value="Utente" style="swimlane;childLayout=stackLayout;horizontal=1;startSize=50;horizontalStack=0;rounded=1;fontSize=14;fontStyle=0;strokeWidth=2;resizeParent=0;resizeLast=1;shadow=0;dashed=0;align=center;arcSize=4;whiteSpace=wrap;html=1;" vertex="1" parent="1">
          <mxGeometry x="410" y="40" width="160" height="160" as="geometry" />
        </mxCell>
        <mxCell id="BN0-aAmPABuchmEnCktR-23" value="&lt;div&gt;PK user_ID&lt;/div&gt;Nome&lt;br&gt;cognome&lt;div&gt;email&lt;/div&gt;&lt;div&gt;password&lt;/div&gt;&lt;div&gt;genere_pref&lt;/div&gt;&lt;div&gt;user_type&lt;/div&gt;&lt;div&gt;&lt;br&gt;&lt;/div&gt;&lt;div&gt;&lt;br&gt;&lt;/div&gt;" style="align=left;strokeColor=none;fillColor=none;spacingLeft=4;fontSize=12;verticalAlign=top;resizable=0;rotatable=0;part=1;html=1;" vertex="1" parent="BN0-aAmPABuchmEnCktR-22">
          <mxGeometry y="50" width="160" height="110" as="geometry" />
        </mxCell>
        <mxCell id="BN0-aAmPABuchmEnCktR-51" value="riferita" style="swimlane;childLayout=stackLayout;horizontal=1;startSize=50;horizontalStack=0;rounded=1;fontSize=14;fontStyle=0;strokeWidth=2;resizeParent=0;resizeLast=1;shadow=0;dashed=0;align=center;arcSize=4;whiteSpace=wrap;html=1;" vertex="1" parent="1">
          <mxGeometry x="360" y="580" width="160" height="120" as="geometry" />
        </mxCell>
        <mxCell id="BN0-aAmPABuchmEnCktR-52" value="PK projection_ID&lt;div&gt;PK review_ID&lt;/div&gt;" style="align=left;strokeColor=none;fillColor=none;spacingLeft=4;fontSize=12;verticalAlign=top;resizable=0;rotatable=0;part=1;html=1;" vertex="1" parent="BN0-aAmPABuchmEnCktR-51">
          <mxGeometry y="50" width="160" height="70" as="geometry" />
        </mxCell>
        <mxCell id="BN0-aAmPABuchmEnCktR-53" value="scritta" style="swimlane;childLayout=stackLayout;horizontal=1;startSize=50;horizontalStack=0;rounded=1;fontSize=14;fontStyle=0;strokeWidth=2;resizeParent=0;resizeLast=1;shadow=0;dashed=0;align=center;arcSize=4;whiteSpace=wrap;html=1;" vertex="1" parent="1">
          <mxGeometry x="580" y="290" width="160" height="120" as="geometry" />
        </mxCell>
        <mxCell id="BN0-aAmPABuchmEnCktR-54" value="PK user_ID&lt;div&gt;PK review_ID&lt;/div&gt;" style="align=left;strokeColor=none;fillColor=none;spacingLeft=4;fontSize=12;verticalAlign=top;resizable=0;rotatable=0;part=1;html=1;" vertex="1" parent="BN0-aAmPABuchmEnCktR-53">
          <mxGeometry y="50" width="160" height="70" as="geometry" />
        </mxCell>
        <mxCell id="BN0-aAmPABuchmEnCktR-55" value="incluso" style="swimlane;childLayout=stackLayout;horizontal=1;startSize=50;horizontalStack=0;rounded=1;fontSize=14;fontStyle=0;strokeWidth=2;resizeParent=0;resizeLast=1;shadow=0;dashed=0;align=center;arcSize=4;whiteSpace=wrap;html=1;" vertex="1" parent="1">
          <mxGeometry x="110" y="270" width="160" height="120" as="geometry" />
        </mxCell>
        <mxCell id="BN0-aAmPABuchmEnCktR-56" value="PK Projection_ID&lt;div&gt;PK Movie_ID&lt;/div&gt;" style="align=left;strokeColor=none;fillColor=none;spacingLeft=4;fontSize=12;verticalAlign=top;resizable=0;rotatable=0;part=1;html=1;" vertex="1" parent="BN0-aAmPABuchmEnCktR-55">
          <mxGeometry y="50" width="160" height="70" as="geometry" />
        </mxCell>
        <mxCell id="BN0-aAmPABuchmEnCktR-57" value="contiene" style="swimlane;childLayout=stackLayout;horizontal=1;startSize=50;horizontalStack=0;rounded=1;fontSize=14;fontStyle=0;strokeWidth=2;resizeParent=0;resizeLast=1;shadow=0;dashed=0;align=center;arcSize=4;whiteSpace=wrap;html=1;" vertex="1" parent="1">
          <mxGeometry x="740" y="100" width="160" height="120" as="geometry" />
        </mxCell>
        <mxCell id="BN0-aAmPABuchmEnCktR-58" value="PK hall_ID&lt;div&gt;PK projection_ID&lt;/div&gt;" style="align=left;strokeColor=none;fillColor=none;spacingLeft=4;fontSize=12;verticalAlign=top;resizable=0;rotatable=0;part=1;html=1;" vertex="1" parent="BN0-aAmPABuchmEnCktR-57">
          <mxGeometry y="50" width="160" height="70" as="geometry" />
        </mxCell>
        <mxCell id="BN0-aAmPABuchmEnCktR-59" value="effuttua" style="swimlane;childLayout=stackLayout;horizontal=1;startSize=50;horizontalStack=0;rounded=1;fontSize=14;fontStyle=0;strokeWidth=2;resizeParent=0;resizeLast=1;shadow=0;dashed=0;align=center;arcSize=4;whiteSpace=wrap;html=1;" vertex="1" parent="1">
          <mxGeometry x="880" y="300" width="160" height="120" as="geometry" />
        </mxCell>
        <mxCell id="BN0-aAmPABuchmEnCktR-60" value="PK user_ID&lt;div&gt;PK booking_ID&lt;/div&gt;" style="align=left;strokeColor=none;fillColor=none;spacingLeft=4;fontSize=12;verticalAlign=top;resizable=0;rotatable=0;part=1;html=1;" vertex="1" parent="BN0-aAmPABuchmEnCktR-59">
          <mxGeometry y="50" width="160" height="70" as="geometry" />
        </mxCell>
        <mxCell id="BN0-aAmPABuchmEnCktR-62" style="edgeStyle=orthogonalEdgeStyle;rounded=0;orthogonalLoop=1;jettySize=auto;html=1;entryX=0;entryY=0.5;entryDx=0;entryDy=0;" edge="1" parent="1" source="BN0-aAmPABuchmEnCktR-56" target="BN0-aAmPABuchmEnCktR-8">
          <mxGeometry relative="1" as="geometry" />
        </mxCell>
        <mxCell id="BN0-aAmPABuchmEnCktR-63" style="edgeStyle=orthogonalEdgeStyle;rounded=0;orthogonalLoop=1;jettySize=auto;html=1;exitX=0.5;exitY=0;exitDx=0;exitDy=0;entryX=0.631;entryY=0.994;entryDx=0;entryDy=0;entryPerimeter=0;" edge="1" parent="1" source="BN0-aAmPABuchmEnCktR-55" target="BN0-aAmPABuchmEnCktR-12">
          <mxGeometry relative="1" as="geometry" />
        </mxCell>
        <mxCell id="BN0-aAmPABuchmEnCktR-64" style="edgeStyle=orthogonalEdgeStyle;rounded=0;orthogonalLoop=1;jettySize=auto;html=1;exitX=0.5;exitY=1;exitDx=0;exitDy=0;entryX=0.5;entryY=0;entryDx=0;entryDy=0;" edge="1" parent="1" source="BN0-aAmPABuchmEnCktR-23" target="BN0-aAmPABuchmEnCktR-53">
          <mxGeometry relative="1" as="geometry" />
        </mxCell>
        <mxCell id="BN0-aAmPABuchmEnCktR-65" style="edgeStyle=orthogonalEdgeStyle;rounded=0;orthogonalLoop=1;jettySize=auto;html=1;exitX=0.5;exitY=1;exitDx=0;exitDy=0;" edge="1" parent="1" source="BN0-aAmPABuchmEnCktR-54" target="BN0-aAmPABuchmEnCktR-5">
          <mxGeometry relative="1" as="geometry" />
        </mxCell>
        <mxCell id="BN0-aAmPABuchmEnCktR-67" style="edgeStyle=orthogonalEdgeStyle;rounded=0;orthogonalLoop=1;jettySize=auto;html=1;exitX=0.5;exitY=0;exitDx=0;exitDy=0;entryX=0.662;entryY=0.05;entryDx=0;entryDy=0;entryPerimeter=0;" edge="1" parent="1" source="BN0-aAmPABuchmEnCktR-22" target="BN0-aAmPABuchmEnCktR-59">
          <mxGeometry relative="1" as="geometry" />
        </mxCell>
        <mxCell id="BN0-aAmPABuchmEnCktR-68" style="edgeStyle=orthogonalEdgeStyle;rounded=0;orthogonalLoop=1;jettySize=auto;html=1;exitX=0.5;exitY=1;exitDx=0;exitDy=0;entryX=0;entryY=0.5;entryDx=0;entryDy=0;" edge="1" parent="1" source="BN0-aAmPABuchmEnCktR-60" target="BN0-aAmPABuchmEnCktR-4">
          <mxGeometry relative="1" as="geometry" />
        </mxCell>
        <mxCell id="BN0-aAmPABuchmEnCktR-69" style="edgeStyle=orthogonalEdgeStyle;rounded=0;orthogonalLoop=1;jettySize=auto;html=1;exitX=0.5;exitY=1;exitDx=0;exitDy=0;entryX=0;entryY=0.5;entryDx=0;entryDy=0;" edge="1" parent="1" source="BN0-aAmPABuchmEnCktR-8" target="BN0-aAmPABuchmEnCktR-52">
          <mxGeometry relative="1" as="geometry">
            <Array as="points">
              <mxPoint x="420" y="520" />
              <mxPoint x="200" y="520" />
              <mxPoint x="200" y="665" />
            </Array>
          </mxGeometry>
        </mxCell>
        <mxCell id="BN0-aAmPABuchmEnCktR-70" style="edgeStyle=orthogonalEdgeStyle;rounded=0;orthogonalLoop=1;jettySize=auto;html=1;exitX=1;exitY=0;exitDx=0;exitDy=0;entryX=0.583;entryY=1.033;entryDx=0;entryDy=0;entryPerimeter=0;" edge="1" parent="1" source="BN0-aAmPABuchmEnCktR-52" target="BN0-aAmPABuchmEnCktR-6">
          <mxGeometry relative="1" as="geometry">
            <Array as="points">
              <mxPoint x="520" y="640" />
              <mxPoint x="783" y="640" />
            </Array>
          </mxGeometry>
        </mxCell>
        <mxCell id="BN0-aAmPABuchmEnCktR-71" style="edgeStyle=orthogonalEdgeStyle;rounded=0;orthogonalLoop=1;jettySize=auto;html=1;exitX=0.25;exitY=0;exitDx=0;exitDy=0;entryX=0.579;entryY=1.067;entryDx=0;entryDy=0;entryPerimeter=0;" edge="1" parent="1" source="BN0-aAmPABuchmEnCktR-7" target="BN0-aAmPABuchmEnCktR-58">
          <mxGeometry relative="1" as="geometry" />
        </mxCell>
        <mxCell id="BN0-aAmPABuchmEnCktR-72" style="edgeStyle=orthogonalEdgeStyle;rounded=0;orthogonalLoop=1;jettySize=auto;html=1;exitX=1;exitY=0;exitDx=0;exitDy=0;entryX=0.5;entryY=0;entryDx=0;entryDy=0;" edge="1" parent="1" source="BN0-aAmPABuchmEnCktR-58" target="BN0-aAmPABuchmEnCktR-13">
          <mxGeometry relative="1" as="geometry" />
        </mxCell>
      </root>
    </mxGraphModel>
  </diagram>
</mxfile>
